<svg width="1440" height="568" viewBox="0 0 1440 568" fill="none" xmlns="http://www.w3.org/2000/svg">
<mask id="mask0_1_2" style="mask-type:alpha" maskUnits="userSpaceOnUse" x="0" y="0" width="1440" height="568">
<rect width="1440" height="568" fill="#C4C4C4"/>
</mask>
<g mask="url(#mask0_1_2)">
<path opacity="0.4" d="M1186.43 255.344C1179.2 251.179 1174.02 251.094 1170.87 255.004C1167.64 258.915 1166.11 265.546 1166.11 274.812V324.969C1166.11 334.49 1165.26 342.397 1163.48 348.687C1161.69 355.233 1158.72 359.824 1154.64 362.544C1150.64 365.35 1145.2 366.03 1138.32 364.755C1131.6 363.565 1123.19 359.994 1113.16 354.213L1108.4 351.408V311.877L1114.43 315.363C1121.66 319.528 1126.42 320.038 1128.8 317.063C1131.35 314.088 1132.62 307.967 1132.62 298.7V254.494C1132.62 242.932 1133.73 233.836 1136.02 227.205C1138.23 220.489 1142.74 216.239 1149.45 214.368C1142.74 204.762 1138.23 195.241 1136.02 185.974C1133.81 176.708 1132.71 166.336 1132.71 154.775V110.568C1132.71 101.302 1131.43 93.6511 1128.88 87.7852C1126.5 82.0044 1121.66 76.9887 1114.52 72.8231L1108.48 69.3376V29.807L1113.24 32.6124C1123.27 38.3932 1131.69 44.5991 1138.4 51.145C1145.29 57.776 1150.73 64.7469 1154.72 72.228C1158.89 79.7091 1161.86 87.7002 1163.56 96.2864C1165.35 104.618 1166.2 113.544 1166.2 123.065V173.222C1166.2 182.489 1167.81 190.99 1170.96 198.556C1174.19 206.122 1179.37 212.073 1186.51 216.154L1186.43 255.344Z" fill="url(#paint0_linear_1_2)"/>
<path opacity="0.4" d="M1004.35 110.058C1011.57 114.224 1016.76 114.309 1019.9 110.398C1023.13 106.488 1024.66 99.8568 1024.66 90.5905V40.4334C1024.66 30.912 1025.51 23.0059 1027.3 16.715C1029.09 10.169 1031.98 5.57839 1035.97 2.77299C1040.14 0.0526013 1045.58 -0.627496 1052.29 0.562674C1059.18 1.83786 1067.68 5.40837 1077.71 11.2742L1082.47 14.0796V53.6102L1076.43 50.1247C1069.21 45.9591 1064.36 45.3641 1061.81 48.3395C1059.43 51.3999 1058.24 57.5208 1058.24 66.8721V111.078C1058.24 122.555 1057.14 131.736 1054.84 138.367C1052.63 145.083 1048.13 149.334 1041.41 151.204C1048.13 160.811 1052.63 170.332 1054.84 179.598C1057.05 188.865 1058.16 199.236 1058.16 210.798V255.004C1058.16 264.27 1059.35 271.836 1061.73 277.702C1064.28 283.568 1069.12 288.669 1076.35 292.749L1082.38 296.235V335.765L1077.62 332.96C1067.59 327.179 1059.09 320.888 1052.21 314.342C1045.49 307.796 1040.05 300.826 1035.89 293.259C1031.89 285.863 1029 277.872 1027.3 269.371C1025.51 261.04 1024.66 252.114 1024.66 242.592V192.435C1024.66 183.169 1023.05 174.668 1019.9 167.101C1016.67 159.535 1011.49 153.585 1004.35 149.504V110.058Z" fill="url(#paint1_linear_1_2)"/>
<path opacity="0.15" d="M1211 10.9343L1390.44 114.564L1390.36 544.81L1210.91 441.266L1211 10.9343Z" fill="url(#paint2_linear_1_2)"/>
<path d="M1177.25 67.2972L1320.06 149.674V189.205L1177.25 106.828V67.2972Z" fill="#587298"/>
<path opacity="0.2" d="M1234.37 250.329L1369.7 328.455V448.067L1234.37 369.941V250.329Z" fill="url(#paint3_linear_1_2)"/>
<path opacity="0.15" d="M1233.01 158.6L1370.38 237.916V251.433L1233.01 172.117V158.6Z" fill="white"/>
<path opacity="0.15" d="M1233.01 185.804L1351.76 254.324V267.841L1233.01 199.321V185.804Z" fill="white"/>
<path opacity="0.15" d="M1233.01 212.668L1333.83 270.816V284.333L1233.01 226.185V212.668Z" fill="white"/>
<path opacity="0.2" d="M1211 10.9343L1390.44 114.564V172.202L1210.91 68.6575L1211 10.9343Z" fill="url(#paint4_linear_1_2)"/>
<path opacity="0.2" d="M1255.79 66.0221C1255.79 74.7783 1250.69 78.8589 1244.4 75.2034C1238.11 71.5478 1233.01 61.6014 1233.01 52.8452C1233.01 44.0889 1238.11 40.0083 1244.4 43.6639C1250.69 47.3194 1255.79 57.3508 1255.79 66.0221Z" fill="white"/>
<path opacity="0.15" d="M887.637 142.703L1440 461.499L1439.92 892L887.552 573.205L887.637 142.703Z" fill="url(#paint5_linear_1_2)"/>
<path d="M851 248.798L993.723 331.175V370.705L851 288.414V248.798Z" fill="#EA8C4F"/>
<path opacity="0.15" d="M924.869 357.444L1241.77 540.39V553.907L924.869 370.961V357.444Z" fill="white"/>
<path opacity="0.15" d="M924.869 384.648L1198.25 542.43V555.947L924.869 398.165V384.648Z" fill="white"/>
<path opacity="0.15" d="M924.869 411.596L1157.53 545.916V559.432L924.869 425.113V411.596Z" fill="white"/>
<path opacity="0.2" d="M873.016 425.028L1104.99 558.923V678.535L873.016 544.555V425.028Z" fill="url(#paint6_linear_1_2)"/>
<path opacity="0.15" d="M896.392 469.15L1080.68 575.5V589.017L896.392 482.667V469.15Z" fill="white"/>
<path opacity="0.15" d="M896.392 496.354L1043.96 581.536V595.053L896.392 509.786V496.354Z" fill="white"/>
<path opacity="0.2" d="M887.637 142.703L1439.23 461.159V519.477L887.637 201.106V142.703Z" fill="url(#paint7_linear_1_2)"/>
<path opacity="0.2" d="M947.736 206.547C947.736 215.304 942.635 219.384 936.345 215.729C930.055 212.073 924.954 202.127 924.954 193.37C924.954 184.614 930.055 180.534 936.345 184.189C942.635 187.845 947.736 197.876 947.736 206.547Z" fill="white"/>
</g>
<defs>
<linearGradient id="paint0_linear_1_2" x1="1235.36" y1="17.876" x2="1096.12" y2="259.239" gradientUnits="userSpaceOnUse">
<stop stop-color="#424C57"/>
<stop offset="0.903" stop-color="white" stop-opacity="0"/>
</linearGradient>
<linearGradient id="paint1_linear_1_2" x1="1154.98" y1="1.51234" x2="1015.73" y2="242.845" gradientUnits="userSpaceOnUse">
<stop stop-color="#414B56"/>
<stop offset="0.903" stop-color="white" stop-opacity="0"/>
</linearGradient>
<linearGradient id="paint2_linear_1_2" x1="1393.82" y1="116.519" x2="1222.21" y2="413.807" gradientUnits="userSpaceOnUse">
<stop stop-color="white"/>
<stop offset="1" stop-color="white" stop-opacity="0"/>
</linearGradient>
<linearGradient id="paint3_linear_1_2" x1="1327.95" y1="304.285" x2="1280.25" y2="386.909" gradientUnits="userSpaceOnUse">
<stop stop-color="white"/>
<stop offset="1" stop-color="white" stop-opacity="0"/>
</linearGradient>
<linearGradient id="paint4_linear_1_2" x1="1272.52" y1="11.8282" x2="1327.24" y2="166.739" gradientUnits="userSpaceOnUse">
<stop stop-color="#424C58"/>
<stop offset="1" stop-color="white" stop-opacity="0"/>
</linearGradient>
<linearGradient id="paint5_linear_1_2" x1="1256.97" y1="355.856" x2="1166.07" y2="513.362" gradientUnits="userSpaceOnUse">
<stop stop-color="white"/>
<stop offset="1" stop-color="white" stop-opacity="0"/>
</linearGradient>
<linearGradient id="paint6_linear_1_2" x1="1014.89" y1="506.882" x2="967.192" y2="589.507" gradientUnits="userSpaceOnUse">
<stop stop-color="#434D58"/>
<stop offset="1" stop-color="white" stop-opacity="0"/>
</linearGradient>
<linearGradient id="paint7_linear_1_2" x1="1024.5" y1="95.7139" x2="1233.97" y2="450.519" gradientUnits="userSpaceOnUse">
<stop stop-color="#546F94"/>
<stop offset="1" stop-color="white" stop-opacity="0"/>
</linearGradient>
</defs>
</svg>
